{
	"asset":{
		"version":"2.0",
		"generator":"Created using the official Cinema 4D glTF Exporter 1.000x284978"
	},
	"scenes":[{
		"nodes":[0]
	}],
	"nodes":[{
		"name":"Tube.1",
		"mesh":0,
		"translation":[0.0,
		2.5,
		0.0],
		"rotation":[0.0,
		0.0,
		0.0,
		-1.0],
		"scale":[1.0,
		1.0,
		1.0]
	}],
	"meshes":[{
		"name":"Tube.1",
		"primitives":[{
			"attributes":{
				"POSITION":1,
				"NORMAL":2,
				"TEXCOORD_0":3
			},
			"indices":0
		}]
	}],
	"accessors":[{
		"bufferView":0,
		"max":[109],
		"type":"SCALAR",
		"componentType":5123,
		"count":324,
		"byteOffset":0,
		"min":[0]
	},
	{
		"bufferView":1,
		"max":[260.0,
		2.7999043464660646,
		225.16661071777345],
		"type":"VEC3",
		"componentType":5126,
		"count":110,
		"byteOffset":0,
		"min":[-130.0,
		-2.7999043464660646,
		-225.16661071777345]
	},
	{
		"bufferView":1,
		"max":[0.5000110268592835,
		1.0,
		0.866032600402832],
		"type":"VEC3",
		"componentType":5126,
		"count":110,
		"byteOffset":12,
		"min":[-1.0,
		-1.0,
		-0.866032600402832]
	},
	{
		"bufferView":1,
		"max":[1.0,
		1.0],
		"type":"VEC2",
		"componentType":5126,
		"count":110,
		"byteOffset":24,
		"min":[0.0,
		0.0]
	}],
	"bufferViews":[{
		"buffer":0,
		"byteOffset":0,
		"byteLength":648,
		"target":34963
	},
	{
		"buffer":0,
		"byteOffset":648,
		"byteLength":3520,
		"target":34962,
		"byteStride":32
	}],
	"buffers":[{
		"uri":"data:application/octet-stream;base64,",
		"byteLength":4168
	}]
}