{
	"asset":{
		"version":"2.0",
		"generator":"Created using the official Cinema 4D glTF Exporter 1.000x284978"
	},
	"scenes":[{
		"nodes":[0]
	}],
	"nodes":[{
		"name":"Tube",
		"mesh":0,
		"translation":[0.0,
		100.0,
		0.0],
		"rotation":[0.0,
		0.0,
		0.0,
		-1.0],
		"scale":[1.0,
		1.0,
		1.0]
	}],
	"meshes":[{
		"name":"Tube",
		"primitives":[{
			"attributes":{
				"POSITION":1,
				"NORMAL":2,
				"TEXCOORD_0":3
			},
			"indices":0
		}]
	}],
	"accessors":[{
		"bufferView":0,
		"max":[209],
		"type":"SCALAR",
		"componentType":5123,
		"count":612,
		"byteOffset":0,
		"min":[0]
	},
	{
		"bufferView":1,
		"max":[260.0,
		100.0,
		225.16661071777345],
		"type":"VEC3",
		"componentType":5126,
		"count":210,
		"byteOffset":0,
		"min":[-130.0,
		-100.0,
		-225.16661071777345]
	},
	{
		"bufferView":1,
		"max":[1.0,
		1.0,
		0.866019070148468],
		"type":"VEC3",
		"componentType":5126,
		"count":210,
		"byteOffset":12,
		"min":[-1.0,
		-1.0,
		-0.866019070148468]
	},
	{
		"bufferView":1,
		"max":[1.0,
		1.0],
		"type":"VEC2",
		"componentType":5126,
		"count":210,
		"byteOffset":24,
		"min":[0.0,
		0.0]
	}],
	"bufferViews":[{
		"buffer":0,
		"byteOffset":0,
		"byteLength":1224,
		"target":34963
	},
	{
		"buffer":0,
		"byteOffset":1224,
		"byteLength":6720,
		"target":34962,
		"byteStride":32
	}],
	"buffers":[{
		"uri":"data:application/octet-stream;base64,",
		"byteLength":7944
	}]
}