{
	"asset":{
		"version":"2.0",
		"generator":"Created using the official Cinema 4D glTF Exporter 1.000x284978"
	},
	"scenes":[{
		"nodes":[0]
	}],
	"nodes":[{
		"name":"Tube",
		"mesh":0,
		"translation":[0.0,
		200.0,
		0.0],
		"rotation":[0.0,
		0.0,
		0.0,
		-1.0],
		"scale":[1.0,
		1.0,
		1.0]
	}],
	"meshes":[{
		"name":"Tube",
		"primitives":[{
			"attributes":{
				"POSITION":1,
				"NORMAL":2,
				"TEXCOORD_0":3
			},
			"indices":0
		}]
	}],
	"accessors":[{
		"bufferView":0,
		"max":[335],
		"type":"SCALAR",
		"componentType":5123,
		"count":960,
		"byteOffset":0,
		"min":[0]
	},
	{
		"bufferView":1,
		"max":[410.0,
		200.0,
		410.0],
		"type":"VEC3",
		"componentType":5126,
		"count":336,
		"byteOffset":0,
		"min":[-410.0,
		-200.0,
		-410.0]
	},
	{
		"bufferView":1,
		"max":[0.7071068286895752,
		1.0,
		0.7071068286895752],
		"type":"VEC3",
		"componentType":5126,
		"count":336,
		"byteOffset":12,
		"min":[-0.7071068286895752,
		-1.0,
		-0.7071068286895752]
	},
	{
		"bufferView":1,
		"max":[1.0,
		1.0],
		"type":"VEC2",
		"componentType":5126,
		"count":336,
		"byteOffset":24,
		"min":[0.0,
		0.0]
	}],
	"bufferViews":[{
		"buffer":0,
		"byteOffset":0,
		"byteLength":1920,
		"target":34963
	},
	{
		"buffer":0,
		"byteOffset":1920,
		"byteLength":10752,
		"target":34962,
		"byteStride":32
	}],
	"buffers":[{
		"uri":"data:application/octet-stream;base64,",
		"byteLength":12672
	}]
}